<svg width="24" height="24" viewBox="0 0 24 24" fill="none" xmlns="http://www.w3.org/2000/svg">
<path d="M3 9C3 10.105 5.238 11 8 11" stroke="#50E3C2" stroke-width="1.5" stroke-linecap="round" stroke-linejoin="round"/>
<path d="M7.999 15C5.238 15 3 14.105 3 13" stroke="#50E3C2" stroke-width="1.5" stroke-linecap="round" stroke-linejoin="round"/>
<path d="M13 5H13.001V8" stroke="#50E3C2" stroke-width="1.5" stroke-linecap="round" stroke-linejoin="round"/>
<path d="M11 16C11 17.105 13.238 18 16 18C18.762 18 21 17.105 21 16" stroke="#50E3C2" stroke-width="1.5" stroke-linecap="round" stroke-linejoin="round"/>
<path d="M11 12C11 13.105 13.238 14 16 14C18.762 14 21 13.105 21 12" stroke="#50E3C2" stroke-width="1.5" stroke-linecap="round" stroke-linejoin="round"/>
<path d="M16.0019 10C13.2419 10 11.0019 10.895 11.0039 12" stroke="#50E3C2" stroke-width="1.5" stroke-linecap="round" stroke-linejoin="round"/>
<path d="M11 12V20C11 21.105 13.238 22 16 22" stroke="#50E3C2" stroke-width="1.5" stroke-linecap="round" stroke-linejoin="round"/>
<path d="M16 10C18.76 10 21 10.895 20.998 12" stroke="#50E3C2" stroke-width="1.5" stroke-linecap="round" stroke-linejoin="round"/>
<path d="M21 12V20C21 21.105 18.762 22 16 22" stroke="#50E3C2" stroke-width="1.5" stroke-linecap="round" stroke-linejoin="round"/>
<path d="M8 19C5.239 19 3 18.105 3 17" stroke="#50E3C2" stroke-width="1.5" stroke-linecap="round" stroke-linejoin="round"/>
<path d="M8 7C10.7614 7 13 6.10457 13 5C13 3.89543 10.7614 3 8 3C5.23858 3 3 3.89543 3 5C3 6.10457 5.23858 7 8 7Z" stroke="#50E3C2" stroke-width="1.5" stroke-linecap="round" stroke-linejoin="round"/>
<path d="M3 5V17" stroke="#50E3C2" stroke-width="1.5" stroke-linecap="round" stroke-linejoin="round"/>
</svg>
