<svg width="975" height="927" viewBox="0 0 975 927" fill="none" xmlns="http://www.w3.org/2000/svg">
<mask id="mask0_164_5502" style="mask-type:alpha" maskUnits="userSpaceOnUse" x="-368" y="285" width="1175" height="885">
<path d="M806.784 545.976L26.9285 285.91L-368 496.27L93.6498 1169.29L523.288 1097.53L806.784 545.976Z" fill="black"/>
</mask>
<g mask="url(#mask0_164_5502)">
<mask id="mask1_164_5502" style="mask-type:alpha" maskUnits="userSpaceOnUse" x="-343" y="94" width="1265" height="1094">
<path d="M-342.151 1187.78L-77.5874 94.8885L921.494 393.255C898.198 630.925 849.957 1106.96 843.365 1109.73C836.774 1112.5 50.2747 1162.92 -342.151 1187.78Z" fill="url(#paint0_linear_164_5502)"/>
</mask>
<g mask="url(#mask1_164_5502)">
<mask id="mask2_164_5502" style="mask-type:alpha" maskUnits="userSpaceOnUse" x="-245" y="314" width="1178" height="925">
<path d="M-108.758 314.087C-166.828 628.449 -240.85 1029.48 -244.86 1044.93L796.444 1238.85L932.546 508.005L-108.758 314.087Z" fill="url(#paint1_linear_164_5502)"/>
</mask>
<g mask="url(#mask2_164_5502)">
<path d="M237.307 1009.17C319.07 1024.4 408.775 924.646 427.567 823.737C446.358 722.829 437.921 584.241 350.196 567.905C306.724 559.809 266.503 482.525 205.497 523.157C143.394 564.519 129.72 704.371 120.24 755.275C101.448 856.183 155.543 993.946 237.307 1009.17Z" fill="#583DFF"/>
<g filter="url(#filter0_f_164_5502)">
<path d="M237.384 1007.41C331.335 1024.91 421.84 912.489 442.699 800.479C463.558 688.47 455.485 534.876 361.534 517.38C314.976 508.71 272.933 420.394 207.232 465.871C140.35 512.166 124.704 667.317 114.182 723.821C93.3228 835.83 143.432 989.913 237.384 1007.41Z" fill="#583DFF"/>
</g>
<g filter="url(#filter1_f_164_5502)">
<path d="M243.562 991.047C277.025 1043.07 456.568 908.023 476.366 801.713C496.163 695.404 480.158 548.074 368.876 527.35C313.73 517.08 262.366 420.878 186.99 461.617C110.259 503.087 96.7487 659.896 86.7618 713.524C66.9643 819.833 171.074 1032.9 243.562 991.047Z" fill="#583DFF"/>
</g>
<g filter="url(#filter2_f_164_5502)">
<path d="M262.046 950.884C388.026 948.582 513.056 835.646 535.18 716.845C557.303 598.044 519.632 458.145 401.762 436.195C343.351 425.317 292.376 281.854 211.962 328.091C130.104 375.158 115.993 540.179 104.833 600.108C82.709 718.909 116.105 953.55 262.046 950.884Z" fill="#583DFF"/>
</g>
<g filter="url(#filter3_f_164_5502)">
<path d="M327.404 960.437C419.181 924.662 631.687 806.885 654.475 684.52C677.262 562.154 373.881 423.808 246.966 400.173C184.073 388.461 116.406 327.541 30.3362 374.561C-57.2798 422.426 -0.32373 591.142 41.3783 736.524C96.7554 929.581 226.408 1041.11 327.404 960.437Z" fill="#583DFF"/>
</g>
<g filter="url(#filter4_f_164_5502)">
<path d="M251.334 912.447C382.489 936.871 682.54 726.822 705.847 601.667C729.155 476.511 491.844 377.008 360.688 352.583C295.694 340.48 140.173 208.017 51.3479 255.961C-39.0726 304.767 -13.1175 408.613 -24.8748 471.748C-48.182 596.903 120.178 888.022 251.334 912.447Z" fill="#583DFF"/>
</g>
<g filter="url(#filter5_f_164_5502)">
<path d="M251.334 912.447C382.489 936.871 682.54 726.822 705.847 601.667C729.155 476.511 491.844 377.008 360.688 352.583C295.694 340.48 140.173 208.017 51.3479 255.961C-39.0726 304.767 -13.1175 408.613 -24.8748 471.748C-48.182 596.903 120.178 888.022 251.334 912.447Z" fill="#583DFF"/>
</g>
<g filter="url(#filter6_f_164_5502)">
<path d="M251.334 912.447C382.489 936.871 682.54 726.822 705.847 601.667C729.155 476.511 491.844 377.008 360.688 352.583C295.694 340.48 140.173 208.017 51.3479 255.961C-39.0726 304.767 -13.1175 408.613 -24.8748 471.748C-48.182 596.903 120.178 888.022 251.334 912.447Z" fill="#583DFF"/>
</g>
<g filter="url(#filter7_f_164_5502)">
<path d="M251.334 912.447C382.489 936.871 682.54 726.822 705.847 601.667C729.155 476.511 491.844 377.008 360.688 352.583C295.694 340.48 140.173 208.017 51.3479 255.961C-39.0726 304.767 -13.1175 408.613 -24.8748 471.748C-48.182 596.903 120.178 888.022 251.334 912.447Z" fill="#583DFF"/>
</g>
<g filter="url(#filter8_f_164_5502)">
<path d="M270.687 979.65C385.448 1001.02 514.958 854.493 538.265 729.337C561.573 604.182 526.805 457.715 412.044 436.344C355.174 425.753 271.78 378.103 192.608 427.845C112.013 478.481 112.413 620.501 100.655 683.636C77.3483 808.791 155.925 958.278 270.687 979.65Z" fill="#583DFF"/>
</g>
</g>
</g>
<mask id="mask3_164_5502" style="mask-type:alpha" maskUnits="userSpaceOnUse" x="-3" y="413" width="437" height="677">
<path d="M405.86 413.793L142.729 445.245L-2.88286 1089.52L433.278 1049.05L405.86 413.793Z" fill="url(#paint2_linear_164_5502)"/>
</mask>
<g mask="url(#mask3_164_5502)">
<g opacity="0.58">
<mask id="mask4_164_5502" style="mask-type:alpha" maskUnits="userSpaceOnUse" x="47" y="242" width="504" height="1095">
<path d="M508.316 242.387L51.608 405.885L47.7996 1312.99L550.649 1336.72L508.316 242.387Z" fill="url(#paint3_linear_164_5502)"/>
</mask>
<g mask="url(#mask4_164_5502)">
<path d="M242.657 1006.84C173.335 875.178 190.841 722.452 212.907 629.426L234.619 576.467L257.229 534.932L359.129 508.144L418.26 668.536L403.137 976.791L338.162 1062.12C328.437 1073.35 295.721 1078.03 242.657 1006.84Z" fill="#583DFF"/>
<g filter="url(#filter9_f_164_5502)">
<path d="M233.561 1011.5C187.76 913.26 198.567 872.334 215.989 800.267L237.7 747.307L260.31 705.773L362.21 678.984L423.538 660.721L408.414 968.975L343.439 1054.3C333.714 1065.54 286.625 1082.69 233.561 1011.5Z" fill="#583DFF"/>
</g>
<g filter="url(#filter10_f_164_5502)">
<path d="M234.53 1043.05C169.941 853.504 218.184 670.812 235.606 598.745L243.105 563.329L255.958 528.388L357.859 501.6L416.99 661.992L401.866 970.247L304.555 1030.35C294.83 1041.59 287.595 1114.24 234.53 1043.05Z" fill="#583DFF"/>
</g>
<g filter="url(#filter11_f_164_5502)">
<path d="M240.13 1050.02C183.887 813.699 212.949 643.923 230.37 571.856L237.87 536.44L250.723 501.499L369.331 423.149L410.184 704.24L467.012 1080.24L361.671 1146.49C351.946 1157.73 293.194 1121.21 240.13 1050.02Z" fill="#583DFF"/>
</g>
</g>
</g>
</g>
</g>
<defs>
<filter id="filter0_f_164_5502" x="106.086" y="449.524" width="349.489" height="563.101" filterUnits="userSpaceOnUse" color-interpolation-filters="sRGB">
<feFlood flood-opacity="0" result="BackgroundImageFix"/>
<feBlend mode="normal" in="SourceGraphic" in2="BackgroundImageFix" result="shape"/>
<feGaussianBlur stdDeviation="1.70321" result="effect1_foregroundBlur_164_5502"/>
</filter>
<filter id="filter1_f_164_5502" x="72.3822" y="439.692" width="423.161" height="574.791" filterUnits="userSpaceOnUse" color-interpolation-filters="sRGB">
<feFlood flood-opacity="0" result="BackgroundImageFix"/>
<feBlend mode="normal" in="SourceGraphic" in2="BackgroundImageFix" result="shape"/>
<feGaussianBlur stdDeviation="5.96125" result="effect1_foregroundBlur_164_5502"/>
</filter>
<filter id="filter2_f_164_5502" x="81.5811" y="301.907" width="476.646" height="666.031" filterUnits="userSpaceOnUse" color-interpolation-filters="sRGB">
<feFlood flood-opacity="0" result="BackgroundImageFix"/>
<feBlend mode="normal" in="SourceGraphic" in2="BackgroundImageFix" result="shape"/>
<feGaussianBlur stdDeviation="8.51607" result="effect1_foregroundBlur_164_5502"/>
</filter>
<filter id="filter3_f_164_5502" x="-61.6821" y="311.001" width="763.36" height="721.946" filterUnits="userSpaceOnUse" color-interpolation-filters="sRGB">
<feFlood flood-opacity="0" result="BackgroundImageFix"/>
<feBlend mode="normal" in="SourceGraphic" in2="BackgroundImageFix" result="shape"/>
<feGaussianBlur stdDeviation="22.9934" result="effect1_foregroundBlur_164_5502"/>
</filter>
<filter id="filter4_f_164_5502" x="-156.125" y="116.476" width="992.641" height="926.996" filterUnits="userSpaceOnUse" color-interpolation-filters="sRGB">
<feFlood flood-opacity="0" result="BackgroundImageFix"/>
<feBlend mode="normal" in="SourceGraphic" in2="BackgroundImageFix" result="shape"/>
<feGaussianBlur stdDeviation="64.5352" result="effect1_foregroundBlur_164_5502"/>
</filter>
<filter id="filter5_f_164_5502" x="-156.125" y="116.476" width="992.641" height="926.996" filterUnits="userSpaceOnUse" color-interpolation-filters="sRGB">
<feFlood flood-opacity="0" result="BackgroundImageFix"/>
<feBlend mode="normal" in="SourceGraphic" in2="BackgroundImageFix" result="shape"/>
<feGaussianBlur stdDeviation="64.5352" result="effect1_foregroundBlur_164_5502"/>
</filter>
<filter id="filter6_f_164_5502" x="-156.125" y="116.476" width="992.641" height="926.996" filterUnits="userSpaceOnUse" color-interpolation-filters="sRGB">
<feFlood flood-opacity="0" result="BackgroundImageFix"/>
<feBlend mode="normal" in="SourceGraphic" in2="BackgroundImageFix" result="shape"/>
<feGaussianBlur stdDeviation="64.5352" result="effect1_foregroundBlur_164_5502"/>
</filter>
<filter id="filter7_f_164_5502" x="-156.125" y="116.476" width="992.641" height="926.996" filterUnits="userSpaceOnUse" color-interpolation-filters="sRGB">
<feFlood flood-opacity="0" result="BackgroundImageFix"/>
<feBlend mode="normal" in="SourceGraphic" in2="BackgroundImageFix" result="shape"/>
<feGaussianBlur stdDeviation="64.5352" result="effect1_foregroundBlur_164_5502"/>
</filter>
<filter id="filter8_f_164_5502" x="43.7511" y="352.787" width="554.162" height="681.755" filterUnits="userSpaceOnUse" color-interpolation-filters="sRGB">
<feFlood flood-opacity="0" result="BackgroundImageFix"/>
<feBlend mode="normal" in="SourceGraphic" in2="BackgroundImageFix" result="shape"/>
<feGaussianBlur stdDeviation="26.3998" result="effect1_foregroundBlur_164_5502"/>
</filter>
<filter id="filter9_f_164_5502" x="159.894" y="619.619" width="304.747" height="486.092" filterUnits="userSpaceOnUse" color-interpolation-filters="sRGB">
<feFlood flood-opacity="0" result="BackgroundImageFix"/>
<feBlend mode="normal" in="SourceGraphic" in2="BackgroundImageFix" result="shape"/>
<feGaussianBlur stdDeviation="20.5511" result="effect1_foregroundBlur_164_5502"/>
</filter>
<filter id="filter10_f_164_5502" x="160.792" y="460.497" width="297.298" height="654.531" filterUnits="userSpaceOnUse" color-interpolation-filters="sRGB">
<feFlood flood-opacity="0" result="BackgroundImageFix"/>
<feBlend mode="normal" in="SourceGraphic" in2="BackgroundImageFix" result="shape"/>
<feGaussianBlur stdDeviation="20.5511" result="effect1_foregroundBlur_164_5502"/>
</filter>
<filter id="filter11_f_164_5502" x="90.4457" y="306.419" width="493.296" height="958.81" filterUnits="userSpaceOnUse" color-interpolation-filters="sRGB">
<feFlood flood-opacity="0" result="BackgroundImageFix"/>
<feBlend mode="normal" in="SourceGraphic" in2="BackgroundImageFix" result="shape"/>
<feGaussianBlur stdDeviation="58.3651" result="effect1_foregroundBlur_164_5502"/>
</filter>
<linearGradient id="paint0_linear_164_5502" x1="-81.7061" y1="507.028" x2="743.254" y2="625.492" gradientUnits="userSpaceOnUse">
<stop stop-color="#C4C4C4" stop-opacity="0"/>
<stop offset="0.430547" stop-color="#C4C4C4"/>
<stop offset="0.498519" stop-color="#C4C4C4"/>
<stop offset="1" stop-color="#C4C4C4" stop-opacity="0"/>
</linearGradient>
<linearGradient id="paint1_linear_164_5502" x1="191.227" y1="1105.58" x2="406.962" y2="402.384" gradientUnits="userSpaceOnUse">
<stop stop-color="#C4C4C4"/>
<stop offset="1" stop-color="#C4C4C4" stop-opacity="0"/>
</linearGradient>
<linearGradient id="paint2_linear_164_5502" x1="288.305" y1="1023.34" x2="324.903" y2="558.566" gradientUnits="userSpaceOnUse">
<stop stop-color="#C4C4C4" stop-opacity="0"/>
<stop offset="0.11282" stop-color="#C4C4C4"/>
<stop offset="0.284305" stop-color="#C4C4C4"/>
<stop offset="1" stop-color="#C4C4C4" stop-opacity="0"/>
</linearGradient>
<linearGradient id="paint3_linear_164_5502" x1="165.586" y1="802.268" x2="289.569" y2="792.678" gradientUnits="userSpaceOnUse">
<stop offset="0.155373" stop-color="#C4C4C4"/>
<stop offset="1" stop-color="#C4C4C4" stop-opacity="0"/>
</linearGradient>
</defs>
</svg>
