<svg width="12" height="12" viewBox="0 0 12 12" fill="none" xmlns="http://www.w3.org/2000/svg">
<path d="M0.120358 2.06886L1.58291 5.43044C1.74101 5.7938 1.74105 6.2008 1.58301 6.56418L0.118598 9.93133C-0.00620702 10.2183 -0.0332925 10.5344 0.0410575 10.8364C0.115407 11.1384 0.287549 11.4113 0.533865 11.6179C0.780181 11.8244 1.0886 11.9544 1.41681 11.9901C1.74502 12.0257 2.07694 11.9651 2.36702 11.8168L11.1655 7.3179C11.418 7.18876 11.6288 6.99818 11.7756 6.76619C11.9225 6.53421 12 6.26939 12 5.99959C12 5.72979 11.9225 5.46498 11.7756 5.23299C11.6288 5.00101 11.418 4.81042 11.1655 4.68128L2.36868 0.183208C2.07858 0.0348486 1.74665 -0.0256713 1.41843 0.00995363C1.0902 0.0455785 0.78177 0.175602 0.535457 0.382183C0.289144 0.588763 0.117019 0.861778 0.0426986 1.16376C-0.0316218 1.46575 -0.00449465 1.78191 0.120358 2.06886Z" fill="white"/>
</svg>
