<svg width="29" height="29" viewBox="0 0 29 29" fill="none" xmlns="http://www.w3.org/2000/svg">
<g clip-path="url(#clip0_136_3995)">
<path d="M8.69875 11.1649L8.44759 11.416C8.12229 11.7455 7.73985 11.9883 7.33067 12.1451C6.1649 12.5919 4.78021 12.3419 3.86816 11.416L3.51516 11.0632L0.946912 8.4947C0.874605 8.42239 0.806608 8.34769 0.74276 8.27052C0.137011 7.54034 -0.0984255 6.60379 0.0371699 5.71408C0.136213 5.0764 0.411873 4.48989 0.860798 4.00593C0.888332 3.97504 0.917382 3.94487 0.946912 3.91526L3.91389 0.948369C3.94406 0.918201 3.97494 0.888592 4.00583 0.86034C4.60567 0.30487 5.38101 0 6.20329 0C7.06722 0.000399044 7.88167 0.337272 8.49324 0.948369L8.85055 1.30591C8.11455 0.682286 7.0254 0.691305 6.29842 1.33217C6.29618 1.3344 6.29171 1.33911 6.28477 1.34622C6.28294 1.34789 6.28102 1.34981 6.27894 1.35204C6.27687 1.35412 6.27463 1.35619 6.2724 1.35859C6.25796 1.37279 6.23872 1.39227 6.21566 1.41549C6.21175 1.41924 6.20776 1.42315 6.20384 1.4273L6.17966 1.45148C6.17519 1.45595 6.17064 1.46026 6.16617 1.46497C6.16578 1.46537 6.16546 1.46553 6.16522 1.46593C6.16051 1.4704 6.15604 1.47511 6.15117 1.47998L6.13696 1.49418C6.12707 1.50392 6.11709 1.51405 6.1068 1.52435L6.09107 1.54007C6.06466 1.56633 6.03696 1.59418 6.00831 1.62283L5.99091 1.64023C5.98509 1.64582 5.97926 1.65165 5.97352 1.65763C5.96769 1.66322 5.96194 1.6692 5.95588 1.67527C5.85588 1.77511 5.75061 1.8803 5.66545 1.96537C5.62611 2.00472 5.58868 2.04231 5.5538 2.07703C5.54949 2.08134 5.54518 2.08565 5.54127 2.08956C5.53417 2.09666 5.52722 2.1036 5.52052 2.11031C5.51565 2.11502 5.51134 2.11933 5.50759 2.12324C5.50216 2.12866 5.49674 2.13393 5.49147 2.13912C5.41509 2.18852 5.34374 2.24646 5.27742 2.31198L2.31045 5.27896C2.25442 5.33499 2.20446 5.39548 2.16065 5.45837C1.84955 5.9065 1.85011 6.5069 2.16328 6.95447C2.18579 6.98743 2.21013 7.01967 2.23654 7.05072C2.25977 7.07841 2.28451 7.10523 2.31053 7.13124L5.23177 10.0525C5.25835 10.0795 5.28588 10.1049 5.31453 10.1289L6.15636 10.9707C6.15636 10.9707 6.27543 11.0716 6.33992 11.121L6.35867 11.1398C7.05237 11.6728 8.00066 11.6894 8.69883 11.1649H8.69875Z" fill="white"/>
<path d="M28.0511 25.0874L25.0841 28.0544C24.4727 28.6658 23.6594 29.0026 22.7947 29.0026C22.1029 29.0026 21.4439 28.7872 20.8949 28.388C20.7573 28.2884 20.6269 28.1765 20.5047 28.0544L14.941 22.4901C14.7302 22.2767 14.3841 22.2473 14.1406 22.4187C14.2059 22.3534 14.5329 22.0276 14.59 21.9693C15.2831 21.3579 16.3053 21.3219 17.0375 21.8594L21.8683 26.6908C21.9261 26.7487 21.9891 26.8008 22.0554 26.8457C22.2714 26.9943 22.5273 27.074 22.7947 27.074C23.1444 27.074 23.473 26.9377 23.7205 26.6908L26.6875 23.7238C27.1426 23.2687 27.1922 22.5596 26.8353 22.0491C26.7922 21.9867 26.7428 21.9269 26.6875 21.8716C26.6874 21.8707 21.8659 17.0513 21.8657 17.0505C21.8392 17.0144 21.8137 16.9784 21.7898 16.9406C21.7678 16.9068 21.7469 16.8721 21.7275 16.8365C21.6924 16.7739 21.6605 16.71 21.6336 16.6436C21.6221 16.6179 21.6111 16.5908 21.6021 16.5639C21.595 16.5452 21.5886 16.5266 21.5822 16.5079C21.5809 16.5047 21.5796 16.5022 21.579 16.4989C21.5234 16.3321 21.4913 16.1591 21.4826 15.9833C21.4819 15.9774 21.4819 15.971 21.4819 15.9646C21.4813 15.962 21.4813 15.9594 21.4813 15.9568C21.4756 15.8079 21.4873 15.6564 21.516 15.51C21.5205 15.4843 21.5263 15.458 21.5327 15.4322C21.5327 15.4309 21.5327 15.4296 21.5333 15.4283C21.5378 15.4109 21.5417 15.393 21.5474 15.3756C21.5494 15.364 21.5526 15.3524 21.5565 15.3409C21.5629 15.3171 21.57 15.2939 21.5783 15.2708C21.579 15.267 21.5803 15.2631 21.5822 15.2592C21.586 15.2457 21.5912 15.2316 21.5963 15.2181C21.6113 15.1763 21.628 15.1339 21.6464 15.0933C21.6611 15.0596 21.6765 15.0256 21.694 14.993C21.7093 14.9626 21.7261 14.9324 21.7428 14.9023C21.7499 14.8914 21.7557 14.8817 21.7621 14.8708C21.7724 14.8541 21.7827 14.8374 21.7937 14.8207C21.7975 14.8142 21.8014 14.8085 21.8059 14.802C21.8065 14.8001 21.8078 14.7988 21.8091 14.7969C21.8103 14.7956 21.8116 14.7937 21.8123 14.7924C21.8135 14.7905 21.8148 14.788 21.8167 14.786C21.8354 14.7569 21.8569 14.7284 21.8778 14.7011C21.8868 14.6889 21.8958 14.6767 21.906 14.6651C21.9125 14.6568 21.9195 14.6485 21.926 14.6401C21.9382 14.6253 21.9504 14.6105 21.9633 14.5963L22.4146 14.145C22.2433 14.3825 22.2746 14.7408 22.4866 14.9435L28.0508 20.5078C28.1737 20.6306 28.2848 20.7611 28.3845 20.898C29.3013 22.1633 29.1907 23.9473 28.0508 25.0871L28.0511 25.0874Z" fill="white"/>
<path d="M28.0529 8.4947L22.4886 14.059C22.4623 14.0853 22.4385 14.1143 22.4173 14.1438L22.4166 14.1451L22.0572 14.5045C22.0572 14.5045 21.9402 14.6253 21.928 14.6401C21.9216 14.6485 21.8888 14.689 21.8798 14.7012C21.8589 14.7286 21.8375 14.7571 21.8188 14.786C21.8169 14.7879 21.8149 14.7905 21.8137 14.7925C21.813 14.7938 21.8118 14.7957 21.8111 14.797C21.8098 14.7989 21.8086 14.8002 21.8079 14.8021C21.8035 14.8085 21.7995 14.8143 21.7957 14.8208C21.7848 14.8374 21.7745 14.8542 21.7642 14.8709C21.7577 14.8818 21.752 14.8915 21.7449 14.9024C21.7282 14.9325 21.7114 14.9627 21.696 14.9931C21.6786 15.0256 21.6632 15.0596 21.6485 15.0934C21.63 15.1339 21.6133 15.1764 21.5983 15.2181C21.5932 15.2316 21.588 15.2457 21.5842 15.2593C21.5823 15.2631 21.581 15.267 21.5804 15.2709C21.572 15.294 21.565 15.3172 21.5585 15.3409C21.5547 15.3525 21.5514 15.3641 21.5495 15.3757C21.5437 15.3931 21.5398 15.411 21.5354 15.4284C21.5347 15.4297 21.5347 15.431 21.5347 15.4322C21.5283 15.4579 21.5225 15.4844 21.5181 15.5101C21.5054 15.5718 21.4964 15.634 21.4911 15.6965C21.4813 15.7824 21.4807 15.8709 21.4833 15.9569C21.4833 15.9595 21.4833 15.962 21.484 15.9647C21.484 15.9711 21.484 15.9775 21.4846 15.9833C21.4859 16.0129 21.4878 16.0425 21.4911 16.0714C21.5043 16.2167 21.5348 16.3603 21.5811 16.4989C21.5817 16.5021 21.583 16.5046 21.5843 16.5079C21.5908 16.5266 21.5971 16.5452 21.6043 16.5639C21.6133 16.5908 21.6242 16.6179 21.6358 16.6436C21.6626 16.7099 21.6945 16.7738 21.7296 16.8365C21.749 16.8721 21.7699 16.9068 21.792 16.9406C21.8157 16.9785 21.8414 17.0145 21.8679 17.0505C21.5741 16.739 20.9429 16.1883 20.7428 15.8194C20.1385 14.852 20.3013 13.4919 21.1253 12.6949C21.5165 12.3043 26.465 7.35543 26.6896 7.13124C27.2001 6.62015 27.2001 5.7895 26.6896 5.27904L23.7226 2.31206C23.4751 2.06522 23.1466 1.9289 22.7968 1.9289C22.4471 1.9289 22.1179 2.06522 21.8704 2.31206L2.31053 21.8715C1.80007 22.3826 1.80007 23.2132 2.31053 23.7237L5.2775 26.6906C5.76585 27.1977 6.64144 27.1983 7.12971 26.6906C7.3499 26.4736 12.2954 21.5221 12.6933 21.1265C13.5329 20.2882 14.8226 20.1471 15.8172 20.7438C16.1817 20.9417 16.7361 21.5711 17.0393 21.8593C16.2756 21.2941 15.1848 21.3726 14.505 22.0577L14.5045 22.0573L14.1425 22.4186C14.1123 22.4391 14.084 22.4629 14.057 22.4899L10.4382 26.1094L8.4934 28.0542C7.88199 28.6656 7.06873 29.0025 6.20337 29.0025C5.338 29.0025 4.52538 28.6656 3.91397 28.0542L0.946993 25.0872C-0.315664 23.8246 -0.315664 21.7705 0.946993 20.5079L20.5066 0.948369C21.118 0.336953 21.9312 0 22.7966 0C23.662 0 24.4746 0.336873 25.086 0.948289L28.053 3.91526C29.3156 5.17792 29.3156 7.23196 28.053 8.49462L28.0529 8.4947Z" fill="white"/>
<path d="M10.4397 6.30416L10.427 6.30432C10.4008 6.54741 10.3075 6.78445 10.1452 6.98373L10.1446 6.98445L6.9829 10.146L6.98274 10.1462C6.49678 10.5409 5.78568 10.5254 5.31641 10.1289L6.15823 10.9707L6.15863 10.9711L6.23277 11.0453C6.33389 11.1464 6.44682 11.2354 6.57156 11.3054C7.08992 11.597 7.71315 11.6333 8.25792 11.414C8.26973 11.4093 8.28131 11.4047 8.29312 11.3996C8.30509 11.3945 8.31706 11.3893 8.32887 11.384C8.34068 11.3787 8.35226 11.3733 8.36407 11.3679C8.37979 11.3604 8.39551 11.3527 8.41124 11.3446C8.42361 11.3385 8.43614 11.3321 8.44851 11.3256C8.4944 11.3011 8.53933 11.2747 8.58354 11.2462C8.59496 11.2388 8.60661 11.2314 8.61778 11.2237C8.61906 11.2229 8.62041 11.222 8.62153 11.2212C8.63462 11.2124 8.64755 11.2034 8.66032 11.1942C8.67381 11.1846 8.68729 11.1747 8.70054 11.1648L11.4164 8.44902C11.7403 8.12508 11.9816 7.74822 12.139 7.34654C12.1802 7.24151 12.2205 7.13401 12.2568 7.02515C12.2572 7.02459 12.2574 7.02419 12.2574 7.02363C12.3243 6.78333 12.363 6.53688 12.3737 6.28955L10.4397 6.304L10.4397 6.30416Z" fill="white"/>
<path d="M12.3732 6.27298C12.3724 6.27856 12.3716 6.28399 12.3708 6.28966L10.4387 6.30426L10.4259 6.30442C10.4673 5.91903 10.3399 5.51918 10.0518 5.23363L7.13027 2.31214C6.71302 1.8799 5.989 1.80424 5.49219 2.13928C5.56074 2.07096 5.63042 2.00129 5.70081 1.93105C5.71749 1.91422 5.73433 1.89754 5.75117 1.8807C5.75787 1.87399 5.76465 1.86721 5.77136 1.8605C5.78277 1.84909 5.79442 1.83744 5.80584 1.82603C5.85588 1.77599 5.90624 1.72563 5.9566 1.67543C5.96242 1.66944 5.96825 1.66362 5.97423 1.65779C6.00161 1.63041 6.02914 1.60288 6.05644 1.57559C6.08006 1.55196 6.10249 1.5273 6.12459 1.5024C6.15253 1.47112 6.18118 1.44119 6.21055 1.41214C6.29411 1.32977 6.38381 1.25635 6.47831 1.19186C6.48581 1.18684 6.49331 1.18157 6.50081 1.1767C6.50927 1.17088 6.51765 1.16545 6.52611 1.16002C6.52667 1.15962 6.52739 1.1593 6.52795 1.15874C6.93417 0.899206 7.42308 0.798247 7.89132 0.86832C7.90521 0.870395 7.91886 0.872629 7.93274 0.875024C8.24903 0.929294 8.55469 1.0621 8.81703 1.27766C8.8286 1.28684 8.84009 1.29641 8.85126 1.30615C9.15989 1.66401 9.60801 2.07136 10.0828 2.51558C10.4616 2.87025 10.8572 3.24878 11.2119 3.64463C11.5854 4.06171 11.9135 4.49819 12.1284 4.94711C12.2291 5.18909 12.3035 5.43554 12.3383 5.66005C12.3692 5.86284 12.3808 6.06827 12.3731 6.27298H12.3732Z" fill="white"/>
</g>
<defs>
<clipPath id="clip0_136_3995">
<rect width="29" height="29.0026" fill="white"/>
</clipPath>
</defs>
</svg>
